<svg fill="#000000" xmlns="http://www.w3.org/2000/svg"  viewBox="0 0 50 50" width="50px" height="50px"><path d="M 14 5 C 9.0414839 5 5 9.0414839 5 14 L 5 36 C 5 40.958516 9.0414839 45 14 45 L 20.519531 45 L 24.21875 49.625 A 1.0001 1.0001 0 0 0 25.78125 49.625 L 29.480469 45 L 36 45 C 40.958516 45 45 40.958516 45 36 L 45 14 C 45 9.0414839 40.958516 5 36 5 L 14 5 z M 14 7 L 36 7 C 39.877484 7 43 10.122516 43 14 L 43 36 C 43 39.877484 39.877484 43 36 43 L 29 43 A 1.0001 1.0001 0 0 0 28.21875 43.375 L 25 47.398438 L 21.78125 43.375 A 1.0001 1.0001 0 0 0 21 43 L 14 43 C 10.122516 43 7 39.877484 7 36 L 7 14 C 7 10.122516 10.122516 7 14 7 z M 20.984375 10.986328 A 1.0001 1.0001 0 0 0 20 12 L 20 15 L 17 15 A 1.0001 1.0001 0 1 0 17 17 L 20 17 L 20 23 L 17 23 A 1.0001 1.0001 0 1 0 17 25 L 20 25 L 20 28 A 1.0001 1.0001 0 1 0 22 28 L 22 25 L 28 25 L 28 28 A 1.0001 1.0001 0 1 0 30 28 L 30 25 L 33 25 A 1.0001 1.0001 0 1 0 33 23 L 30 23 L 30 17 L 33 17 A 1.0001 1.0001 0 1 0 33 15 L 30 15 L 30 12 A 1.0001 1.0001 0 1 0 28 12 L 28 15 L 22 15 L 22 12 A 1.0001 1.0001 0 0 0 20.984375 10.986328 z M 22 17 L 28 17 L 28 23 L 22 23 L 22 17 z M 37.046875 28.972656 A 1.0001 1.0001 0 0 0 36.136719 29.496094 C 33.875482 33.3729 29.798559 36 25 36 C 20.191456 36 16.123595 33.384961 13.865234 29.498047 A 1.0001 1.0001 0 0 0 12.951172 28.988281 A 1.0001 1.0001 0 0 0 12.134766 30.501953 C 14.724405 34.959039 19.462544 38 25 38 C 30.531441 38 35.270518 34.9491 37.863281 30.503906 A 1.0001 1.0001 0 0 0 37.046875 28.972656 z"/></svg>